<svg preserveAspectRatio="xMidYMid meet" data-bbox="36.05 1 127.975 198" xmlns="http://www.w3.org/2000/svg"
viewBox="36.05 1 127.975 198" role="presentation" aria-hidden="true">
<g>
  <path
    d="M163.2 61.6C162.1 28.8 133.2 1 100 1S37.9 28.8 36.8 61.6c-1 30.9-1 46 0 76.8 1.1 32.8 30 60.6 63.2 60.6s62.1-27.8 63.2-60.6c1.1-30.9 1.1-46 0-76.8zm-5.3 76.6c-1 30.1-27.5 55.4-57.9 55.4s-56.9-25.4-57.9-55.4-1-45.6 0-76.4S69.6 6.4 100 6.4s56.9 25.4 57.9 55.4 1 45.6 0 76.4zm-55.2-88.3v38.5a2.7 2.7 0 1 1-5.3 0V49.9a2.7 2.7 0 1 1 5.3 0z">
  </path>
</g>
</svg>